<svg display="none">
  <symbol id="icon-label" viewBox="0 0 15 21" fill="none" xmlns="http://www.w3.org/2000/svg">
    <path d="M7.50016 0.083313C3.46891 0.083313 0.208496 3.34373 0.208496 7.37498C0.208496 12.8437 7.50016 20.9166 7.50016 20.9166C7.50016 20.9166 14.7918 12.8437 14.7918 7.37498C14.7918 3.34373 11.5314 0.083313 7.50016 0.083313ZM2.29183 7.37498C2.29183 4.49998 4.62516 2.16665 7.50016 2.16665C10.3752 2.16665 12.7085 4.49998 12.7085 7.37498C12.7085 10.375 9.7085 14.8646 7.50016 17.6666C5.3335 14.8854 2.29183 10.3437 2.29183 7.37498Z" fill="#FFC300"/>
    <path d="M7.50016 9.97915C8.9384 9.97915 10.1043 8.81322 10.1043 7.37498C10.1043 5.93674 8.9384 4.77081 7.50016 4.77081C6.06192 4.77081 4.896 5.93674 4.896 7.37498C4.896 8.81322 6.06192 9.97915 7.50016 9.97915Z" fill="#FFC300"/>
  </symbol>
  <symbol id="icon-basket" viewBox="0 0 25 25" fill="none" xmlns="http://www.w3.org/2000/svg">
    <path d="M18.7498 6.25H16.6665C16.6665 3.94791 14.8019 2.08333 12.4998 2.08333C10.1978 2.08333 8.33317 3.94791 8.33317 6.25H6.24984C5.104 6.25 4.1665 7.1875 4.1665 8.33333V20.8333C4.1665 21.9792 5.104 22.9167 6.24984 22.9167H18.7498C19.8957 22.9167 20.8332 21.9792 20.8332 20.8333V8.33333C20.8332 7.1875 19.8957 6.25 18.7498 6.25ZM12.4998 4.16666C13.6457 4.16666 14.5832 5.10416 14.5832 6.25H10.4165C10.4165 5.10416 11.354 4.16666 12.4998 4.16666ZM18.7498 20.8333H6.24984V8.33333H8.33317V10.4167C8.33317 10.9896 8.80192 11.4583 9.37484 11.4583C9.94775 11.4583 10.4165 10.9896 10.4165 10.4167V8.33333H14.5832V10.4167C14.5832 10.9896 15.0519 11.4583 15.6248 11.4583C16.1978 11.4583 16.6665 10.9896 16.6665 10.4167V8.33333H18.7498V20.8333Z" fill="black"/>
  </symbol>
  <symbol id="icon-facebook" viewBox="0 0 40 40" fill="none" xmlns="http://www.w3.org/2000/svg">
    <path fill-rule="evenodd" clip-rule="evenodd" d="M0 20.1117C0 30.055 7.22167 38.3233 16.6667 40V25.555H11.6667V20H16.6667V15.555C16.6667 10.555 19.8883 7.77833 24.445 7.77833C25.8883 7.77833 27.445 8 28.8883 8.22167V13.3333H26.3333C23.8883 13.3333 23.3333 14.555 23.3333 16.1117V20H28.6667L27.7783 25.555H23.3333V40C32.7783 38.3233 40 30.0567 40 20.1117C40 9.05 31 0 20 0C9 0 0 9.05 0 20.1117Z" fill="#E9E9E9"/>
  </symbol>
  <symbol id="icon-instagram" viewBox="0 0 40 40" fill="none" xmlns="http://www.w3.org/2000/svg">
    <path d="M20 40C17.2917 40 14.7005 39.4727 12.2266 38.418C9.7526 37.3633 7.6237 35.944 5.83984 34.1602C4.05599 32.3763 2.63672 30.2474 1.58203 27.7734C0.527344 25.2995 0 22.7083 0 20C0 17.2917 0.527344 14.7005 1.58203 12.2266C2.63672 9.7526 4.05599 7.6237 5.83984 5.83984C7.6237 4.05599 9.7526 2.63672 12.2266 1.58203C14.7005 0.527344 17.2917 0 20 0C22.7083 0 25.2995 0.527344 27.7734 1.58203C30.2474 2.63672 32.3763 4.05599 34.1602 5.83984C35.944 7.6237 37.3633 9.7526 38.418 12.2266C39.4727 14.7005 40 17.2917 40 20C40 22.7083 39.4727 25.2995 38.418 27.7734C37.3633 30.2474 35.944 32.3763 34.1602 34.1602C32.3763 35.944 30.2474 37.3633 27.7734 38.418C25.2995 39.4727 22.7083 40 20 40ZM30 12.5C30 11.8229 29.7591 11.237 29.2773 10.7422C28.7956 10.2474 28.2031 10 27.5 10H12.5C11.8229 10 11.237 10.2474 10.7422 10.7422C10.2474 11.237 10 11.8229 10 12.5V15H14.4531C15.9635 13.3333 17.8125 12.5 20 12.5C22.1875 12.5 24.0365 13.3333 25.5469 15H30V12.5ZM15 20C15 21.3802 15.4883 22.5586 16.4648 23.5352C17.4414 24.5117 18.6198 25 20 25C21.3802 25 22.5586 24.5117 23.5352 23.5352C24.5117 22.5586 25 21.3802 25 20C25 18.6198 24.5117 17.4414 23.5352 16.4648C22.5586 15.4883 21.3802 15 20 15C18.6198 15 17.4414 15.4883 16.4648 16.4648C15.4883 17.4414 15 18.6198 15 20ZM30 17.5H27.0312C27.3438 18.3594 27.5 19.1927 27.5 20C27.5 22.0833 26.7708 23.8542 25.3125 25.3125C23.8542 26.7708 22.0833 27.5 20 27.5C17.9167 27.5 16.1458 26.7708 14.6875 25.3125C13.2292 23.8542 12.5 22.0833 12.5 20C12.5 19.1927 12.6562 18.3594 12.9688 17.5H10V27.5C10 28.2031 10.2409 28.7956 10.7227 29.2773C11.2044 29.7591 11.7969 30 12.5 30H27.5C28.2031 30 28.7956 29.7591 29.2773 29.2773C29.7591 28.7956 30 28.2031 30 27.5V17.5Z" fill="#E9E9E9"/>
  </symbol>
  <symbol id="icon-vkontakte" viewBox="0 0 40 40" fill="none" xmlns="http://www.w3.org/2000/svg">
    <path d="M20 0C8.95417 0 0 8.95417 0 20C0 31.0458 8.95417 40 20 40C31.0458 40 40 31.0458 40 20C40 8.95417 31.0458 0 20 0ZM27.6917 22.5646C27.6917 22.5646 29.4604 24.3104 29.8958 25.1208C29.9083 25.1375 29.9146 25.1542 29.9187 25.1625C30.0958 25.4604 30.1375 25.6917 30.05 25.8646C29.9042 26.1521 29.4042 26.2938 29.2333 26.3062H26.1083C25.8917 26.3062 25.4375 26.25 24.8875 25.8708C24.4646 25.575 24.0479 25.0896 23.6417 24.6167C23.0354 23.9125 22.5104 23.3042 21.9813 23.3042C21.914 23.3041 21.8472 23.3146 21.7833 23.3354C21.3833 23.4646 20.8708 24.0354 20.8708 25.5562C20.8708 26.0312 20.4958 26.3042 20.2312 26.3042H18.8C18.3125 26.3042 15.7729 26.1333 13.5229 23.7604C10.7687 20.8542 8.28958 15.025 8.26875 14.9708C8.1125 14.5938 8.43542 14.3917 8.7875 14.3917H11.9437C12.3646 14.3917 12.5021 14.6479 12.5979 14.875C12.7104 15.1396 13.1229 16.1917 13.8 17.375C14.8979 19.3042 15.5708 20.0875 16.1104 20.0875C16.2116 20.0863 16.311 20.0606 16.4 20.0125C17.1042 19.6208 16.9729 17.1104 16.9417 16.5896C16.9417 16.4917 16.9396 15.4667 16.5792 14.975C16.3208 14.6187 15.8812 14.4833 15.6146 14.4333C15.7225 14.2844 15.8647 14.1636 16.0292 14.0812C16.5125 13.8396 17.3833 13.8042 18.2479 13.8042H18.7292C19.6667 13.8167 19.9083 13.8771 20.2479 13.9625C20.9354 14.1271 20.95 14.5708 20.8896 16.0896C20.8708 16.5208 20.8521 17.0083 20.8521 17.5833C20.8521 17.7083 20.8458 17.8417 20.8458 17.9833C20.825 18.7563 20.8 19.6333 21.3458 19.9937C21.417 20.0384 21.4993 20.0622 21.5833 20.0625C21.7729 20.0625 22.3438 20.0625 23.8896 17.4104C24.3663 16.5568 24.7806 15.6697 25.1292 14.7562C25.1604 14.7021 25.2521 14.5354 25.3604 14.4708C25.4404 14.4301 25.529 14.4093 25.6187 14.4104H29.3292C29.7333 14.4104 30.0104 14.4708 30.0625 14.6271C30.1542 14.875 30.0458 15.6313 28.3521 17.925L27.5958 18.9229C26.0604 20.9354 26.0604 21.0375 27.6917 22.5646Z" fill="#E9E9E9"/>
  </symbol>
  <symbol id="icon-whatsapp" viewBox="0 0 40 40" fill="none" xmlns="http://www.w3.org/2000/svg">
    <path d="M0.00802676 40L2.71203 30.064C0.930302 27.0097 -0.00578126 23.536 2.68645e-05 20C2.68645e-05 8.95399 8.95402 0 20 0C31.046 0 40 8.95399 40 20C40 31.046 31.046 40 20 40C16.4656 40.0057 12.9933 39.0703 9.94002 37.29L0.00802676 40ZM12.782 10.616C12.5237 10.632 12.2714 10.7001 12.04 10.816C11.8231 10.9389 11.625 11.0924 11.452 11.272C11.212 11.498 11.076 11.694 10.93 11.884C10.1908 12.846 9.79324 14.0268 9.80002 15.24C9.80402 16.22 10.06 17.174 10.46 18.066C11.278 19.87 12.624 21.78 14.402 23.55C14.83 23.976 15.248 24.404 15.698 24.802C17.9048 26.7449 20.5345 28.1461 23.378 28.894L24.516 29.068C24.886 29.088 25.256 29.06 25.628 29.042C26.2105 29.0119 26.7792 28.8542 27.294 28.58C27.5559 28.4451 27.8115 28.2983 28.06 28.14C28.06 28.14 28.146 28.084 28.31 27.96C28.58 27.76 28.746 27.618 28.97 27.384C29.136 27.212 29.28 27.01 29.39 26.78C29.546 26.454 29.702 25.832 29.766 25.314C29.814 24.918 29.8 24.702 29.794 24.568C29.786 24.354 29.608 24.132 29.414 24.038L28.25 23.516C28.25 23.516 26.51 22.758 25.448 22.274C25.336 22.2252 25.216 22.1974 25.094 22.192C24.9572 22.1779 24.8189 22.1933 24.6885 22.2371C24.5581 22.281 24.4386 22.3522 24.338 22.446V22.442C24.328 22.442 24.194 22.556 22.748 24.308C22.665 24.4195 22.5507 24.5038 22.4196 24.5501C22.2885 24.5964 22.1466 24.6026 22.012 24.568C21.8817 24.5331 21.754 24.489 21.63 24.436C21.382 24.332 21.296 24.292 21.126 24.218L21.116 24.214C19.9718 23.7144 18.9125 23.0397 17.976 22.214C17.724 21.994 17.49 21.754 17.25 21.522C16.4632 20.7685 15.7774 19.916 15.21 18.986L15.092 18.796C15.0073 18.6683 14.9387 18.5306 14.888 18.386C14.812 18.092 15.01 17.856 15.01 17.856C15.01 17.856 15.496 17.324 15.722 17.036C15.9102 16.7966 16.0858 16.5476 16.248 16.29C16.484 15.91 16.558 15.52 16.434 15.218C15.874 13.85 15.294 12.488 14.698 11.136C14.58 10.868 14.23 10.676 13.912 10.638C13.804 10.626 13.696 10.614 13.588 10.606C13.3194 10.5926 13.0503 10.5953 12.782 10.614V10.616Z" fill="#E9E9E9"/>
  </symbol>
  <symbol id="icon-leaf" viewBox="0 0 68 68" fill="none" xmlns="http://www.w3.org/2000/svg">
    <path d="M9.20771 17.5414C-2.16729 28.9164 -2.16729 47.3331 9.12438 58.7081C15.2494 44.5414 26.166 32.7081 39.791 25.6664C28.2494 35.4164 20.166 49.0414 17.3327 64.4997C28.166 69.6247 41.4994 67.7497 50.4577 58.7914C64.9577 44.2914 67.3327 0.666412 67.3327 0.666412C67.3327 0.666412 23.7077 3.04141 9.20771 17.5414Z" fill="#FFC300"/>
  </symbol>
  <symbol id="icon-pig" viewBox="0 0 84 80" fill="none" xmlns="http://www.w3.org/2000/svg">
    <path d="M74.6413 23.2503L65.1829 13.7919C65.4746 12.0419 65.9329 10.4169 66.5163 9.00025C66.8496 8.25025 67.0163 7.45859 67.0163 6.58359C67.0163 3.12525 64.2246 0.333588 60.7663 0.333588C53.9329 0.333588 47.8913 3.62525 44.0996 8.66692H23.2663C10.5996 8.66692 0.349609 18.9169 0.349609 31.5836C0.349609 44.2503 10.7663 79.5003 10.7663 79.5003H33.6829V71.1669H42.0163V79.5003H64.9329L71.933 56.2086L83.683 52.2919V23.2503H74.6413ZM46.1829 29.5003H25.3496V21.1669H46.1829V29.5003ZM58.6829 37.8336C56.3913 37.8336 54.5163 35.9586 54.5163 33.6669C54.5163 31.3753 56.3913 29.5003 58.6829 29.5003C60.9746 29.5003 62.8496 31.3753 62.8496 33.6669C62.8496 35.9586 60.9746 37.8336 58.6829 37.8336Z" fill="#FFC300"/>
  </symbol>
  <symbol id="icon-present" viewBox="0 0 84 80" fill="none" xmlns="http://www.w3.org/2000/svg">
    <path d="M75.3496 17.0002H66.2663C66.7246 15.7086 67.0163 14.2919 67.0163 12.8336C67.0163 5.91689 61.4329 0.333557 54.5163 0.333557C50.1413 0.333557 46.3496 2.58356 44.0996 5.95856L42.0163 8.75022L39.9329 5.91689C37.6829 2.58356 33.8913 0.333557 29.5163 0.333557C22.5996 0.333557 17.0163 5.91689 17.0163 12.8336C17.0163 14.2919 17.3079 15.7086 17.7663 17.0002H8.68294C4.05794 17.0002 0.391276 20.7086 0.391276 25.3336L0.349609 71.1669C0.349609 75.7919 4.05794 79.5002 8.68294 79.5002H75.3496C79.9746 79.5002 83.683 75.7919 83.683 71.1669V25.3336C83.683 20.7086 79.9746 17.0002 75.3496 17.0002ZM54.5163 8.66689C56.8079 8.66689 58.6829 10.5419 58.6829 12.8336C58.6829 15.1252 56.8079 17.0002 54.5163 17.0002C52.2246 17.0002 50.3496 15.1252 50.3496 12.8336C50.3496 10.5419 52.2246 8.66689 54.5163 8.66689ZM29.5163 8.66689C31.8079 8.66689 33.6829 10.5419 33.6829 12.8336C33.6829 15.1252 31.8079 17.0002 29.5163 17.0002C27.2246 17.0002 25.3496 15.1252 25.3496 12.8336C25.3496 10.5419 27.2246 8.66689 29.5163 8.66689ZM75.3496 71.1669H8.68294V62.8336H75.3496V71.1669ZM75.3496 50.3336H8.68294V25.3336H29.8496L21.1829 37.1252L27.9329 42.0002L37.8496 28.5002L42.0163 22.8336L46.1829 28.5002L56.0996 42.0002L62.8496 37.1252L54.1829 25.3336H75.3496V50.3336Z" fill="#FFC300"/>
  </symbol>
  <symbol id="icon-video" viewBox="0 0 40 40" fill="none" xmlns="http://www.w3.org/2000/svg">
    <path d="M20 0C8.96 0 0 8.96 0 20C0 31.04 8.96 40 20 40C31.04 40 40 31.04 40 20C40 8.96 31.04 0 20 0ZM20 31.84C13.46 31.84 8.16 26.54 8.16 20C8.16 13.46 13.46 8.16 20 8.16C26.54 8.16 31.84 13.46 31.84 20C31.84 26.54 26.54 31.84 20 31.84ZM20 9.62C14.28 9.62 9.62 14.28 9.62 20C9.62 25.72 14.28 30.38 20 30.38C25.72 30.38 30.38 25.72 30.38 20C30.38 14.28 25.72 9.62 20 9.62ZM16.14 25.9V14.1L26.36 20L16.14 25.9Z" fill="#E9E9E9"/>
  </symbol>
  <symbol id="icon-checkbox-off" viewBox="0 0 15 15" fill="none" xmlns="http://www.w3.org/2000/svg">
    <rect x="0.5" y="0.5" width="14" height="14" rx="1.5" fill="white" stroke="#E9E9E9"/>
  </symbol>
  <symbol id="icon-checkbox-on" viewBox="0 0 15 15" fill="none" xmlns="http://www.w3.org/2000/svg">
    <path d="M2.5 7.5L6.25 11.25L12.5 3.75" stroke="black" stroke-width="2" stroke-linecap="round" stroke-linejoin="round"/>
  </symbol>
  <symbol id="icon-radio-off" viewBox="0 0 15 15" fill="none" xmlns="http://www.w3.org/2000/svg">
    <circle cx="7.5" cy="7.5" r="7" fill="white" stroke="#E9E9E9"/>
  </symbol>
  <symbol id="icon-radio-on" viewBox="0 0 15 15" fill="none" xmlns="http://www.w3.org/2000/svg">
    <circle cx="7.5" cy="7.5" r="7.5" fill="#FFC300"/>
    <circle cx="7.5" cy="7.5" r="2.5" fill="black"/>
  </symbol>
  <symbol id="icon-minus" viewBox="0 0 30 30" fill="none" xmlns="http://www.w3.org/2000/svg">
    <circle cx="15" cy="15" r="14.5" fill="white" stroke="#E9E9E9"/>
    <path d="M22.4702 14.0701H16.1702H14.0702H7.77021C7.49174 14.0701 7.22467 14.1807 7.02775 14.3776C6.83084 14.5745 6.72021 14.8416 6.72021 15.1201C6.72021 15.3985 6.83084 15.6656 7.02775 15.8625C7.22467 16.0594 7.49174 16.1701 7.77021 16.1701H14.0702H16.1702H22.4702C22.7487 16.1701 23.0158 16.0594 23.2127 15.8625C23.4096 15.6656 23.5202 15.3985 23.5202 15.1201C23.5202 14.8416 23.4096 14.5745 23.2127 14.3776C23.0158 14.1807 22.7487 14.0701 22.4702 14.0701Z" fill="#E9E9E9"/>
  </symbol>
  <symbol id="icon-plus" viewBox="0 0 30 30" fill="none" xmlns="http://www.w3.org/2000/svg">
    <circle cx="15" cy="15" r="14.5" fill="white" stroke="#FFC300"/>
    <path d="M22.4702 14.07H16.1702V7.76997C16.1702 7.49149 16.0596 7.22442 15.8627 7.02751C15.6658 6.8306 15.3987 6.71997 15.1202 6.71997C14.8417 6.71997 14.5747 6.8306 14.3778 7.02751C14.1808 7.22442 14.0702 7.49149 14.0702 7.76997V14.07H7.77021C7.49174 14.07 7.22467 14.1806 7.02775 14.3775C6.83084 14.5744 6.72021 14.8415 6.72021 15.12C6.72021 15.3984 6.83084 15.6655 7.02775 15.8624C7.22467 16.0593 7.49174 16.17 7.77021 16.17H14.0702V22.47C14.0702 22.7484 14.1808 23.0155 14.3778 23.2124C14.5747 23.4093 14.8417 23.52 15.1202 23.52C15.3987 23.52 15.6658 23.4093 15.8627 23.2124C16.0596 23.0155 16.1702 22.7484 16.1702 22.47V16.17H22.4702C22.7487 16.17 23.0158 16.0593 23.2127 15.8624C23.4096 15.6655 23.5202 15.3984 23.5202 15.12C23.5202 14.8415 23.4096 14.5744 23.2127 14.3775C23.0158 14.1806 22.7487 14.07 22.4702 14.07Z" fill="#FFC300"/>
  </symbol>
  <symbol id="icon-cart" viewBox="0 0 21 21" fill="none" xmlns="http://www.w3.org/2000/svg">
    <path d="M15.1978 11.5416C15.979 11.5416 16.6665 11.1146 17.0207 10.4687L20.7498 3.70831C21.1353 3.02081 20.6353 2.16665 19.8436 2.16665H4.42692L3.44775 0.083313H0.0415039V2.16665H2.12484L5.87484 10.0729L4.46859 12.6146C3.70817 14.0104 4.70817 15.7083 6.2915 15.7083H18.7915V13.625H6.2915L7.43734 11.5416H15.1978ZM5.4165 4.24998H18.0728L15.1978 9.45831H7.88525L5.4165 4.24998ZM6.2915 16.75C5.14567 16.75 4.21859 17.6875 4.21859 18.8333C4.21859 19.9791 5.14567 20.9166 6.2915 20.9166C7.43734 20.9166 8.37484 19.9791 8.37484 18.8333C8.37484 17.6875 7.43734 16.75 6.2915 16.75ZM16.7082 16.75C15.5623 16.75 14.6353 17.6875 14.6353 18.8333C14.6353 19.9791 15.5623 20.9166 16.7082 20.9166C17.854 20.9166 18.7915 19.9791 18.7915 18.8333C18.7915 17.6875 17.854 16.75 16.7082 16.75Z" fill="black"/>
  </symbol>
</svg>